<svg width="17" height="16" viewBox="0 0 17 16" fill="none" xmlns="http://www.w3.org/2000/svg">
<path d="M16.5273 3.53893C16.2655 2.93275 15.8881 2.38344 15.416 1.92174C14.9436 1.45867 14.3866 1.09067 13.7754 0.837759C13.1416 0.574465 12.4617 0.439695 11.7754 0.441275C10.8125 0.441275 9.87305 0.704947 9.05664 1.20299C8.86133 1.32213 8.67578 1.45299 8.5 1.59557C8.32422 1.45299 8.13867 1.32213 7.94336 1.20299C7.12695 0.704947 6.1875 0.441275 5.22461 0.441275C4.53125 0.441275 3.85938 0.574088 3.22461 0.837759C2.61133 1.09167 2.05859 1.4569 1.58398 1.92174C1.11132 2.38292 0.733746 2.93236 0.472656 3.53893C0.201172 4.16979 0.0625 4.83971 0.0625 5.52917C0.0625 6.17956 0.195313 6.85729 0.458984 7.54674C0.679688 8.12292 0.996094 8.72057 1.40039 9.32409C2.04102 10.2792 2.92188 11.2753 4.01562 12.285C5.82812 13.9589 7.62305 15.1151 7.69922 15.162L8.16211 15.4589C8.36719 15.5897 8.63086 15.5897 8.83594 15.4589L9.29883 15.162C9.375 15.1132 11.168 13.9589 12.9824 12.285C14.0762 11.2753 14.957 10.2792 15.5977 9.32409C16.002 8.72057 16.3203 8.12292 16.5391 7.54674C16.8027 6.85729 16.9355 6.17956 16.9355 5.52917C16.9375 4.83971 16.7988 4.16979 16.5273 3.53893Z" fill="#FF4D4F"/>
</svg>
