<svg width="21" height="20" viewBox="0 0 21 20" fill="none" xmlns="http://www.w3.org/2000/svg">
<g clip-path="url(#clip0_765_39)">
<path d="M19.6746 4.89773C19.3754 4.20496 18.944 3.57717 18.4045 3.04952C17.8647 2.52029 17.2281 2.09972 16.5295 1.81068C15.8052 1.50977 15.0282 1.35575 14.2438 1.35755C13.1434 1.35755 12.0697 1.65889 11.1367 2.22809C10.9135 2.36425 10.7014 2.5138 10.5005 2.67675C10.2996 2.5138 10.0876 2.36425 9.86436 2.22809C8.93133 1.65889 7.85767 1.35755 6.75722 1.35755C5.96481 1.35755 5.19695 1.50934 4.47151 1.81068C3.77061 2.10086 3.13892 2.51827 2.59651 3.04952C2.05632 3.57658 1.6248 4.20451 1.32642 4.89773C1.01615 5.61871 0.857666 6.38434 0.857666 7.17228C0.857666 7.91559 1.00945 8.69014 1.31079 9.47809C1.56302 10.1366 1.92463 10.8196 2.38668 11.5093C3.11883 12.6009 4.12552 13.7393 5.37552 14.8933C7.44695 16.8062 9.49829 18.1276 9.58535 18.1812L10.1144 18.5205C10.3487 18.6701 10.6501 18.6701 10.8845 18.5205L11.4135 18.1812C11.5005 18.1254 13.5496 16.8062 15.6233 14.8933C16.8733 13.7393 17.88 12.6009 18.6121 11.5093C19.0742 10.8196 19.438 10.1366 19.688 9.47809C19.9894 8.69014 20.1411 7.91559 20.1411 7.17228C20.1434 6.38434 19.9849 5.61871 19.6746 4.89773ZM10.5005 16.7549C10.5005 16.7549 2.55409 11.6634 2.55409 7.17228C2.55409 4.89773 4.43579 3.05398 6.75722 3.05398C8.38892 3.05398 9.80409 3.96469 10.5005 5.29505C11.197 3.96469 12.6121 3.05398 14.2438 3.05398C16.5653 3.05398 18.447 4.89773 18.447 7.17228C18.447 11.6634 10.5005 16.7549 10.5005 16.7549Z" fill="black" fill-opacity="0.85"/>
</g>
<defs>
<clipPath id="clip0_765_39">
<rect width="20" height="20" fill="white" transform="translate(0.5)"/>
</clipPath>
</defs>
</svg>
